<?xml version="1.0" encoding="utf-8"?>
<!-- Generator: Adobe Illustrator 24.2.0, SVG Export Plug-In . SVG Version: 6.00 Build 0)  -->
<svg version="1.1" id="Capa_1" xmlns="http://www.w3.org/2000/svg" xmlns:xlink="http://www.w3.org/1999/xlink" x="0px" y="0px"
	 viewBox="0 0 353.9 353.9" style="enable-background:new 0 0 353.9 353.9;" xml:space="preserve">
<style type="text/css">
	.st0{fill:#F4C157;}
</style>
<path class="st0" d="M210.3,344.9c0,5-4,9-9,9h-48.7c-5,0-9-4-9-9s4-9,9-9h48.6C206.3,335.9,210.3,340,210.3,344.9z M289.7,259v25.9
	c0,19.3-15.7,34.9-34.9,34.9H99.2c-19.3,0-34.9-15.7-34.9-34.9V259c0-5,4-9,9-9h2.4c0-0.3,0-0.5,0-0.8v-24.1c0-0.5,0-1.1,0.1-1.6
	c0.2-1.3,0.7-2.6,1.4-3.6c0.7-1.1,1.6-2,2.8-2.7c0.5-0.3,0.9-0.5,1.4-0.7c3.6-1.5,7.1-3,10.6-4.6v-110c0-17.9,11.4-33.6,27.6-39.6
	c0-0.5,0-1,0-1.5V38.6c0-21.3,17.3-38.6,38.6-38.6h37.7c21.3,0,38.6,17.3,38.6,38.6v22.2c0,0.5,0,1,0,1.5
	c6.4,2.4,12.1,6.3,16.7,11.4c0.2-0.3,0.3-0.6,0.5-0.9c2.3-4.4,7.8-6.1,12.2-3.8c4.4,2.3,6.1,7.8,3.8,12.2
	c-16.8,31.9-41.3,61.5-72.7,87.9c-25.1,21.1-53.5,39.3-84.8,54.3V250h134V141.6c0-5,4-9,9-9c5,0,9,4,9,9V250h18.7
	C285.6,250,289.7,254,289.7,259z M137.5,60.8c0,1.8,0.2,3.6,0.7,5.3c0.1,0.2,0.1,0.4,0.2,0.7c2.6,8.4,10.4,14.6,19.7,14.6h37.7
	c9.3,0,17.1-6.1,19.7-14.6c0.1-0.2,0.1-0.5,0.2-0.7c0.5-1.7,0.7-3.5,0.7-5.3V38.6c0-11.3-9.2-20.6-20.6-20.6h-37.7
	c-11.3,0-20.6,9.2-20.6,20.6L137.5,60.8L137.5,60.8z M110,203.3c56.2-28.5,102.3-68.1,131.2-112.7c-2.6-4.9-6.8-8.7-11.7-10.8
	c-6.6,11.7-19.2,19.7-33.6,19.7h-37.7c-14.4,0-27-7.9-33.6-19.7c-8.6,3.8-14.5,12.4-14.5,22.2L110,203.3L110,203.3z M271.7,268
	h-18.6c0,0-0.1,0-0.1,0H101c0,0-0.1,0-0.1,0H82.2v16.9c0,9.3,7.6,16.9,16.9,16.9h155.6c9.3,0,16.9-7.6,16.9-16.9V268z"/>
</svg>
