<?xml version="1.0" encoding="utf-8"?>
<!-- Generator: Adobe Illustrator 24.2.0, SVG Export Plug-In . SVG Version: 6.00 Build 0)  -->
<svg version="1.1"
	 id="svg2307" inkscape:output_extension="org.inkscape.output.svg.inkscape" inkscape:version="0.45.1" sodipodi:docbase="/home/phsi/Desktop/clIPART" sodipodi:docname="Car_with_Driver-Silhouette.svg" sodipodi:version="0.32" xmlns:cc="http://web.resource.org/cc/" xmlns:dc="http://purl.org/dc/elements/1.1/" xmlns:inkscape="http://www.inkscape.org/namespaces/inkscape" xmlns:rdf="http://www.w3.org/1999/02/22-rdf-syntax-ns#" xmlns:sodipodi="http://sodipodi.sourceforge.net/DTD/sodipodi-0.dtd" xmlns:svg="http://www.w3.org/2000/svg"
	 xmlns="http://www.w3.org/2000/svg" xmlns:xlink="http://www.w3.org/1999/xlink" x="0px" y="0px" viewBox="0 0 310 260"
	 style="enable-background:new 0 0 310 260;" xml:space="preserve">
<style type="text/css">
	.st0{fill-rule:evenodd;clip-rule:evenodd;fill:#F4C157;}
</style>
<sodipodi:namedview  bordercolor="#666666" borderopacity="1.0" gridtolerance="10000" guidetolerance="10" height="260px" id="base" inkscape:current-layer="svg2307" inkscape:cx="240.61188" inkscape:cy="154.13128" inkscape:document-units="px" inkscape:pageopacity="0.0" inkscape:pageshadow="2" inkscape:window-height="949" inkscape:window-width="1280" inkscape:window-x="0" inkscape:window-y="25" inkscape:zoom="0.69326923" objecttolerance="10" pagecolor="#ffffff" width="310px">
	</sodipodi:namedview>
<g id="layer1" transform="translate(2.441785,-204.56609)" inkscape:groupmode="layer" inkscape:label="Layer 1">
	<path id="path9347" class="st0" d="M88,209.6c-13.4-0.5-25,3.9-32.2,19.7L30,294.4c-18.8,5.2-27,19-27.4,30.3V410h24.8v28.7
		c-1.2,27.4,43.3,28.4,44.3-0.3l0.5-28.2H233l0.5,28.2c1,28.7,45.5,27.6,44.3,0.3V410h24.8v-85.3c-0.4-11.3-8.6-25.1-27.4-30.3
		l-25.8-65.1c-7.1-15.8-18.7-20.1-32.2-19.7H88z M90.9,232.2c1.1,0,2.3,0,3.5,0.1l116.7,0.4c10.7-0.3,15.2,0,19.7,10.2l18.6,50.5
		l-193.5-0.2l18.4-49.1C77.1,234.1,83,232.2,90.9,232.2z M50.3,318.6c11.6,0,21,9.4,21,21.1c0,11.7-9.4,21.1-21,21.1
		s-21-9.5-21-21.1C29.3,328,38.7,318.6,50.3,318.6z M256,318.6c11.6,0,20.9,9.4,20.9,21.1c0,11.7-9.4,21.1-20.9,21.1
		c-11.6,0-21-9.5-21-21.1C235,328,244.4,318.6,256,318.6z M241.6,290.8L241.6,290.8z"/>
</g>
</svg>
