<?xml version="1.0" encoding="utf-8"?>
<!-- Generator: Adobe Illustrator 24.2.0, SVG Export Plug-In . SVG Version: 6.00 Build 0)  -->
<svg version="1.1" id="Capa_1" xmlns="http://www.w3.org/2000/svg" xmlns:xlink="http://www.w3.org/1999/xlink" x="0px" y="0px"
	 viewBox="0 0 512 512" style="enable-background:new 0 0 512 512;" xml:space="preserve">
<style type="text/css">
	.st0{fill:#F4C157;}
</style>
<g>
	<g>
		<path class="st0" d="M460.4,109.8h-111V89.2c0-26.2-21.3-47.6-47.6-47.6h-78.6c-26.2,0-47.6,21.3-47.6,47.6v20.5H51.6
			C23.1,109.8,0,132.9,0,161.3v257.5c0,28.4,23.1,51.6,51.6,51.6h408.9c28.4,0,51.6-23.1,51.6-51.6V161.3
			C512,132.9,488.9,109.8,460.4,109.8z M205.7,89.2c0-9.7,7.9-17.6,17.6-17.6h78.6c9.7,0,17.6,7.9,17.6,17.6v20.5H205.7V89.2z
			 M70.9,440.4H51.6c-11.9,0-21.6-9.7-21.6-21.6V161.3c0-11.9,9.7-21.6,21.6-21.6h19.3V440.4z M413.2,440.4H100.9V139.8h312.4
			L413.2,440.4L413.2,440.4z M482,418.8c0,11.9-9.7,21.6-21.6,21.6h-17.2V139.8h17.2c11.9,0,21.6,9.7,21.6,21.6V418.8z"/>
	</g>
</g>
</svg>
