<?xml version="1.0" encoding="utf-8"?>
<!-- Generator: Adobe Illustrator 24.2.0, SVG Export Plug-In . SVG Version: 6.00 Build 0)  -->
<svg version="1.1" id="Layer_1" xmlns="http://www.w3.org/2000/svg" xmlns:xlink="http://www.w3.org/1999/xlink" x="0px" y="0px"
	 viewBox="0 0 512 512" style="enable-background:new 0 0 512 512;" xml:space="preserve">
<style type="text/css">
	.st0{fill:#F4C157;}
</style>
<g>
	<g>
		<polygon class="st0" points="360.5,131.8 360.5,239.3 272.7,239.3 272.7,131.8 239.3,131.8 239.3,239.3 151.4,239.3 151.4,131.8 
			118.1,131.8 118.1,380.2 151.4,380.2 151.4,272.7 239.3,272.7 239.3,380.2 272.7,380.2 272.7,272.7 393.9,272.7 393.9,131.8 		"/>
	</g>
</g>
<g>
	<g>
		<path class="st0" d="M437,75C388.7,26.6,324.4,0,256,0S123.3,26.6,75,75C26.6,123.3,0,187.6,0,256s26.6,132.7,75,181
			c48.4,48.4,112.6,75,181,75s132.7-26.6,181-75c48.4-48.4,75-112.6,75-181S485.4,123.3,437,75z M256,478.6
			c-122.7,0-222.6-99.9-222.6-222.6S133.3,33.4,256,33.4S478.6,133.3,478.6,256S378.7,478.6,256,478.6z"/>
	</g>
</g>
<g>
	<g>
		<path class="st0" d="M393.8,351.2c5.8-4.1,9.3-11,9.3-18.5c0-11-9.1-22.5-21.8-22.5h-29.8v64.8h17.8v-19.9h6.7l12.3,19.9h20.1
			L393.8,351.2z M380.5,339.6h-11.2v-13.9h10.8c2.2,0,4.9,2.5,4.9,6.9C385,337.1,382.7,339.6,380.5,339.6z"/>
	</g>
</g>
</svg>
