<?xml version="1.0" encoding="utf-8"?>
<!-- Generator: Adobe Illustrator 24.2.0, SVG Export Plug-In . SVG Version: 6.00 Build 0)  -->
<svg version="1.1" id="Capa_1" xmlns="http://www.w3.org/2000/svg" xmlns:xlink="http://www.w3.org/1999/xlink" x="0px" y="0px"
	 viewBox="0 0 480 491" style="enable-background:new 0 0 480 491;" xml:space="preserve">
<style type="text/css">
	.st0{fill:#F4C157;stroke:#F4C157;stroke-width:5;stroke-miterlimit:10;}
</style>
<g>
	<g>
		<path class="st0" d="M436.3,199L278.5,41.2C256,18.6,225.4,5.9,193.6,6H72C49.9,6,32,23.9,32,46v432c0,4.4,3.6,8,8,8h235.5
			c20.5,0,39.3-11.2,49.2-29.2c21.7-39.8,54.4-72.5,94.2-94.2c18-9.8,29.2-28.7,29.2-49.2v-86.2C448,216.6,443.8,206.5,436.3,199z
			 M432,313.5c0,14.6-8,28.1-20.8,35.1c-42.5,23.1-77.4,58-100.5,100.5c-7,12.9-20.5,20.8-35.1,20.8H48V46c0-13.3,10.7-24,24-24
			h121.6c27.6-0.1,54.1,10.9,73.5,30.5L425,210.3c4.5,4.5,7,10.6,7,17V313.5z"/>
	</g>
</g>
<g>
	<g>
		<path class="st0" d="M397.7,208.3L253.1,63.8c-16.5-16.6-38.9-25.8-62.2-25.8H88c-13.3,0-24,10.7-24,24v152c0,4.4,3.6,8,8,8h320
			c3.2,0,6.2-1.9,7.4-4.9C400.6,214.1,399.9,210.6,397.7,208.3z M272,206H80V62c0-4.4,3.6-8,8-8h102.9c19.1-0.1,37.4,7.5,50.9,21.1
			l30.2,30.2V206z M288,206v-84.7l84.7,84.7H288z"/>
	</g>
</g>
<g>
	<g>
		<path class="st0" d="M376,246h-48c-13.3,0-24,10.7-24,24s10.7,24,24,24h48c13.3,0,24-10.7,24-24C400,256.7,389.3,246,376,246z
			 M376,278h-48c-4.4,0-8-3.6-8-8s3.6-8,8-8h48c4.4,0,8,3.6,8,8S380.4,278,376,278z"/>
	</g>
</g>
</svg>
