<?xml version="1.0" encoding="utf-8"?>
<!-- Generator: Adobe Illustrator 24.2.0, SVG Export Plug-In . SVG Version: 6.00 Build 0)  -->
<svg version="1.1" id="Capa_1" xmlns="http://www.w3.org/2000/svg" xmlns:xlink="http://www.w3.org/1999/xlink" x="0px" y="0px"
	 viewBox="0 0 512 512" style="enable-background:new 0 0 512 512;" xml:space="preserve">
<style type="text/css">
	.st0{fill:#FED47F;}
</style>
<path class="st0" d="M474.7,352.3h-5.3v-32c0-29.4-23.9-53.3-53.3-53.3s-53.3,23.9-53.3,53.3v32h-5.3c-20.6,0-37.3,16.7-37.3,37.3
	v74.7c0,20.6,16.7,37.3,37.3,37.3h117.3c20.6,0,37.3-16.7,37.3-37.3v-74.7C512,369.1,495.3,352.3,474.7,352.3z M394.7,320.3
	c0-11.8,9.6-21.3,21.3-21.3s21.3,9.6,21.3,21.3v32h-42.7V320.3z"/>
<path class="st0" d="M288,389.7c0-28.8,17.6-53.5,42.7-64v-5.3c0-13,3.1-25.1,8.3-36.2c-16.1-10.8-35.5-17.2-56.3-17.2H101.3
	C45.5,267,0,312.5,0,368.3V443c0,8.8,7.2,16,16,16h272V389.7z"/>
<path class="st0" d="M298.7,117.7c0,58.9-47.8,106.7-106.7,106.7S85.3,176.6,85.3,117.7S133.1,11,192,11S298.7,58.8,298.7,117.7z"/>
</svg>
